<?xml version="1.0" encoding="utf-8"?>
<!-- Generator: Adobe Illustrator 24.0.2, SVG Export Plug-In . SVG Version: 6.00 Build 0)  -->
<svg version="1.1" id="Capa_1" xmlns="http://www.w3.org/2000/svg" xmlns:xlink="http://www.w3.org/1999/xlink" x="0px" y="0px"
	 viewBox="0 0 250 250" style="enable-background:new 0 0 250 250;" xml:space="preserve">
<style type="text/css">
	.st0{fill:#FFFFFF;}
</style>
<g>
	<g>
		<path class="st0" d="M219.6,60.6H31.8c-11,0-19.9-8.9-19.9-19.9v0c0-11,8.9-19.9,19.9-19.9h187.9c11,0,19.9,8.9,19.9,19.9v0
			C239.5,51.6,230.6,60.6,219.6,60.6z"/>
	</g>
	<g>
		<path class="st0" d="M218.5,144.7H30.6c-11,0-19.9-8.9-19.9-19.9v0c0-11,8.9-19.9,19.9-19.9h187.9c11,0,19.9,8.9,19.9,19.9v0
			C238.3,135.8,229.4,144.7,218.5,144.7z"/>
	</g>
	<g>
		<path class="st0" d="M218.2,229.2H30.4c-11,0-19.9-8.9-19.9-19.9v0c0-11,8.9-19.9,19.9-19.9h187.9c11,0,19.9,8.9,19.9,19.9v0
			C238.1,220.3,229.2,229.2,218.2,229.2z"/>
	</g>
</g>
</svg>
