<?xml version="1.0" encoding="utf-8"?>
<!-- Generator: Adobe Illustrator 25.2.0, SVG Export Plug-In . SVG Version: 6.00 Build 0)  -->
<svg version="1.1" xmlns="http://www.w3.org/2000/svg" xmlns:xlink="http://www.w3.org/1999/xlink" x="0px" y="0px"
	 viewBox="0 0 75 75" style="enable-background:new 0 0 75 75;" xml:space="preserve">
<style type="text/css">
	.st0{fill:none;stroke:#009486;stroke-width:5;stroke-miterlimit:10;}
	.st1{fill:#009486;}
	.st2{fill:none;stroke:#009486;stroke-miterlimit:10;}
	.st3{fill:#009486;stroke:#009486;stroke-miterlimit:10;}
	.st4{fill:#FFFFFF;}
	.st5{fill:#074943;}
	.st6{fill:#0A4A43;}
	.st7{fill:#010101;}
	.st8{fill:#E8E8E8;}
	.st9{fill:#E9E9E9;}
	.st10{fill:#EBEBEB;}
	.st11{fill:#EEEEEE;}
	.st12{fill:#FCFCFC;}
	.st13{fill:#EFEFEF;}
	.st14{fill:#F1F1F1;}
	.st15{fill:#FBFBFB;}
	.st16{fill:#F4F4F4;}
	.st17{fill:#F9F9F9;}
	.st18{fill:#010102;}
	.st19{fill:#F5F5F5;}
	.st20{fill:#749490;}
	.st21{fill:#CDE0DE;}
	.st22{fill:#CED7D6;}
	.st23{fill:#DFAD3B;}
	.st24{fill:#DCEEEC;}
	.st25{fill:#CFD8D8;}
	.st26{fill:#D99830;}
	.st27{fill:#E5AB17;}
	.st28{fill:#CCDDDB;}
	.st29{fill:#E4A016;}
	.st30{fill:#DDA436;}
	.st31{fill:#E2D02E;}
	.st32{fill:#E0B03C;}
	.st33{fill:#D8EAE8;}
	.st34{fill:#D58C2C;}
	.st35{fill:#E1D02E;}
	.st36{fill:#D4E7E5;}
	.st37{fill:#CCD4D4;}
	.st38{fill:#D58D2D;}
	.st39{fill:#DDA537;}
	.st40{fill:#D2E4E2;}
	.st41{fill:#DAE2E1;}
	.st42{fill:#D4DCDB;}
	.st43{fill:#DDE6E4;}
	.st44{fill:#D7942F;}
	.st45{fill:#DA9C32;}
	.st46{fill:#CDD6D5;}
	.st47{fill:#D8962F;}
	.st48{fill:#D4862A;}
	.st49{fill:#FDFDFD;}
	.st50{fill:#CDDFDD;}
	.st51{fill:#C66617;}
	.st52{fill:#D7E1E0;}
	.st53{fill:#FDFFFF;}
	.st54{fill:#FAFBFB;}
	.st55{fill:#E4BD41;}
	.st56{fill:#DBE3E3;}
	.st57{fill:#DFAE3B;}
	.st58{fill:#DFCE2F;}
	.st59{fill:#DAE2E2;}
	.st60{fill:#DBA018;}
	.st61{fill:#E0B23D;}
	.st62{fill:#CEE1DF;}
	.st63{fill:#FDFFFD;}
	.st64{fill:#DD6C11;}
	.st65{fill:#CA7813;}
	.st66{fill:#DB9F33;}
	.st67{fill:#E5C143;}
	.st68{fill:#D48D16;}
	.st69{fill:#DDA638;}
	.st70{fill:#E39713;}
	.st71{fill:#FBFCFC;}
	.st72{fill:#E2B73F;}
	.st73{fill:#DA9931;}
	.st74{fill:#D08213;}
	.st75{fill:#D07E24;}
	.st76{fill:#DDA738;}
	.st77{fill:#F9FAFA;}
	.st78{fill:#DEA91B;}
	.st79{fill:#C66416;}
	.st80{fill:#CEE2E0;}
	.st81{fill:#CD7421;}
	.st82{fill:#E4BF42;}
	.st83{fill:#D69617;}
	.st84{fill:#E1B63E;}
	.st85{fill:#D4892A;}
	.st86{fill:#FAFCFC;}
	.st87{fill:#DEA637;}
	.st88{fill:#E9EEED;}
	.st89{fill:#CA6C1E;}
	.st90{fill:#CA651B;}
	.st91{fill:#C55B19;}
	.st92{fill:#D07D25;}
	.st93{fill:#D07D24;}
	.st94{fill:#DBEDEA;}
	.st95{fill:#E6B61D;}
	.st96{fill:#C35E1A;}
	.st97{fill:#CC7221;}
	.st98{fill:#F9FBFB;}
	.st99{fill:#E6EBEB;}
	.st100{fill:#C7611B;}
	.st101{fill:#CC7521;}
	.st102{fill:#CA671C;}
	.st103{fill:#DEB840;}
	.st104{fill:#C15318;}
	.st105{fill:#DCA839;}
	.st106{fill:#CB7421;}
	.st107{fill:#D28026;}
	.st108{fill:#D2DBDA;}
	.st109{fill:#E19213;}
	.st110{fill:#CDD5D4;}
	.st111{fill:#F2F5F5;}
	.st112{fill:#C15818;}
	.st113{fill:#DCCC30;}
	.st114{fill:#F4F6F6;}
	.st115{fill:#DD8111;}
	.st116{fill:#ECF0F0;}
	.st117{fill:#E3E9E9;}
	.st118{fill:#ECF1F0;}
	.st119{fill:#1A534D;}
	.st120{fill:#769693;}
	.st121{fill:#6C8F8C;}
	.st122{fill:#205852;}
	.st123{fill:#215852;}
	.st124{fill:#2A5E59;}
	.st125{fill:#F7F9F9;}
	.st126{fill:#F8F9FA;}
	.st127{fill:#2A5F59;}
	.st128{fill:#285D58;}
	.st129{fill:#285E58;}
	.st130{fill:#F5F7F7;}
	.st131{fill:#F4F7F7;}
	.st132{fill:#2F645E;}
	.st133{fill:#30645F;}
	.st134{fill:#F6F8F8;}
	.st135{fill:#366863;}
	.st136{fill:#3E6F6A;}
	.st137{fill:#F9FAFB;}
	.st138{fill:#3F6F6A;}
	.st139{fill:#44736E;}
	.st140{fill:#DACB2F;}
	.st141{fill:#D9CB30;}
	.st142{fill:#E4EAEA;}
	.st143{fill:#E8EDED;}
	.st144{fill:#DCE3E3;}
	.st145{fill:#DCE5E4;}
	.st146{fill:#DBDBDA;}
	.st147{fill:#DADADA;}
	.st148{fill:#DCDCDC;}
	.st149{fill:#E9E9E8;}
	.st150{fill:#E7E6E6;}
	.st151{fill:#DDDDDD;}
	.st152{fill:#E8E7E7;}
	.st153{fill:#E3E4E3;}
	.st154{fill:#DEDEDE;}
	.st155{fill:#E3E2E2;}
	.st156{fill:#E0E0E0;}
	.st157{fill:#DDDEDE;}
	.st158{fill:#E3E3E3;}
	.st159{fill:#E6E5E5;}
	.st160{fill:#DFE0E0;}
	.st161{fill:#EDECEC;}
	.st162{fill:#ECECEC;}
	.st163{fill:#4B5251;}
	.st164{fill:#C8DBD9;}
	.st165{fill:#C8D2D1;}
	.st166{fill:#CDDEDC;}
	.st167{fill:#CCDEDC;}
	.st168{fill:#0F4C45;}
	.st169{fill:#0D4B44;}
	.st170{fill:#CBDDDB;}
	.st171{fill:#144E47;}
	.st172{fill:#124E47;}
	.st173{fill:#104D46;}
	.st174{fill:#CEDFDD;}
	.st175{fill:#575D5C;}
	.st176{fill:#545D5C;}
	.st177{fill:#CAD5D4;}
	.st178{fill:#CCD4D3;}
	.st179{fill:#0E4C45;}
	.st180{fill:#124D46;}
	.st181{fill:#172927;}
	.st182{fill:#000302;}
	.st183{fill:#727575;}
	.st184{fill:#0C4A43;}
	.st185{fill:#CFE3E1;}
	.st186{fill:#0F4C44;}
	.st187{fill:#4B4623;}
	.st188{fill:#2B2F28;}
	.st189{fill:#010201;}
	.st190{fill:#222014;}
	.st191{fill:#2C2F28;}
	.st192{fill:#0B4B44;}
	.st193{fill:#DAE5E4;}
	.st194{fill:#1B534C;}
	.st195{fill:#D2DDDC;}
	.st196{fill:#F3F2F3;}
	.st197{fill:#F3F3F4;}
	.st198{fill:#D6E9E7;}
	.st199{fill:#D4E6E3;}
	.st200{fill:#0D4C45;}
	.st201{fill:#DDEEEC;}
	.st202{fill:#F7F6F6;}
	.st203{fill:#D9E1E1;}
	.st204{fill:#DBDBDB;}
	.st205{fill:#DFDFDF;}
	.st206{fill:#EAEAEA;}
	.st207{fill:#C0D4D2;}
	.st208{fill:#E0E1E0;}
	.st209{fill:#C2D4D2;}
	.st210{fill:#CFD8D7;}
	.st211{fill:#C6D8D6;}
	.st212{fill:#C7CFCF;}
	.st213{fill:#C1CACA;}
	.st214{fill:#CADCDA;}
	.st215{fill:#C8D1D0;}
	.st216{fill:#CAD4D3;}
	.st217{fill:#C5CDCE;}
	.st218{fill:#CEE0DE;}
	.st219{fill:#1A524B;}
	.st220{fill:#DCE4E3;}
	.st221{fill:#DFE0DF;}
	.st222{fill:#E1E0E0;}
	.st223{fill:#C6D0D0;}
	.st224{fill:#C3CDCD;}
	.st225{fill:#C7D0D0;}
	.st226{fill:#C7D9D8;}
	.st227{fill:#C8DAD8;}
	.st228{fill:#EADA26;}
	.st229{fill:#D28127;}
	.st230{fill:#E7BA1C;}
	.st231{fill:#CF7B24;}
	.st232{fill:#E29014;}
	.st233{fill:#E29913;}
	.st234{fill:#EDCF24;}
	.st235{fill:#E5B01B;}
	.st236{fill:#0F4C43;}
	.st237{fill:#134D43;}
	.st238{fill:#DEA738;}
	.st239{fill:#E8C120;}
	.st240{fill:#E9CF22;}
	.st241{fill:#EADB26;}
	.st242{fill:#EAD624;}
	.st243{fill:#E4A117;}
	.st244{fill:#E4A917;}
	.st245{fill:#E5B11B;}
	.st246{fill:#E5AC18;}
	.st247{fill:#E7BF1E;}
	.st248{fill:#D5DEDD;}
	.st249{fill:#1A5043;}
	.st250{fill:#134E43;}
	.st251{fill:#124D43;}
	.st252{fill:#E8C521;}
	.st253{fill:#E8CE22;}
	.st254{fill:#DC9E32;}
	.st255{fill:#EAD623;}
	.st256{fill:#EADF29;}
	.st257{fill:#E8C220;}
	.st258{fill:#E9D023;}
	.st259{fill:#E9CB22;}
	.st260{fill:#D4882A;}
	.st261{fill:#E5AD1A;}
	.st262{fill:#E8BC1E;}
	.st263{fill:#E4A919;}
	.st264{fill:#E8C922;}
	.st265{fill:#CC7614;}
	.st266{fill:#1E534C;}
	.st267{fill:#1D544D;}
	.st268{fill:#175049;}
	.st269{fill:#155049;}
	.st270{fill:#CFDAD9;}
	.st271{fill:#1D544E;}
	.st272{fill:#E08011;}
	.st273{fill:#E28E14;}
	.st274{fill:#ECCD22;}
	.st275{fill:#E29614;}
	.st276{fill:#E3B21D;}
	.st277{fill:#CB7614;}
	.st278{fill:#DE6F10;}
	.st279{fill:#DD6A10;}
	.st280{fill:#D38A15;}
	.st281{fill:#E07F0F;}
	.st282{fill:#E18912;}
	.st283{fill:#E29414;}
	.st284{fill:#E39E16;}
	.st285{fill:#E6B41C;}
	.st286{fill:#DF7B0F;}
	.st287{fill:#E18A12;}
	.st288{fill:#DF7710;}
	.st289{fill:#E6B21A;}
	.st290{fill:#E5A917;}
	.st291{fill:#E28C13;}
	.st292{fill:#E8C122;}
	.st293{fill:#134E48;}
	.st294{fill:#1A9588;}
	.st295{fill:#169587;}
	.st296{fill:#179487;}
	.st297{fill:#E1E1E1;}
	.st298{fill:#C8DAD9;}
	.st299{fill:#C5CFCE;}
	.st300{fill:#C4CECE;}
	.st301{fill:#D0E2E1;}
	.st302{fill:#C6CECE;}
	.st303{fill:#D0DAD9;}
	.st304{fill:#CBD4D3;}
	.st305{fill:#CEE1E0;}
	.st306{fill:#D1DBDA;}
	.st307{fill:#C3D5D4;}
	.st308{fill:#0B4B43;}
	.st309{fill:#1A5143;}
	.st310{fill:#104C43;}
	.st311{fill:#114D46;}
	.st312{fill:#19524A;}
	.st313{fill:#245750;}
	.st314{fill:#DCDDDC;}
	.st315{fill:#C2D5D3;}
	.st316{fill:#C1D4D2;}
	.st317{fill:#C0D2D0;}
	.st318{fill:#C9DCDA;}
	.st319{fill:#CCD5D4;}
	.st320{fill:#CBD5D4;}
	.st321{fill:#164F48;}
	.st322{fill:#C4CDCD;}
	.st323{fill:#C5D7D5;}
	.st324{fill:#D0E3E1;}
	.st325{fill:#D3E5E3;}
	.st326{fill:#CCD6D5;}
	.st327{fill:#17514A;}
	.st328{fill:#009686;}
	.st329{fill:#039686;}
	.st330{fill:#CBD3D3;}
	.st331{fill:#D0D9D8;}
	.st332{fill:#425D5A;}
	.st333{fill:#C7D1D0;}
	.st334{fill:#C9D2D2;}
	.st335{fill:#E7E7E7;}
	.st336{fill:#E1E3E2;}
	.st337{fill:#E6E7E6;}
	.st338{fill:#E4E5E4;}
	.st339{fill:#192826;}
	.st340{fill:#182423;}
	.st341{fill:#212F2D;}
	.st342{fill:#273533;}
	.st343{fill:#323C3B;}
	.st344{fill:#444545;}
	.st345{fill:#1F2C2A;}
	.st346{fill:#010202;}
	.st347{fill:#154F48;}
	.st348{fill:#CAD3D3;}
	.st349{fill:#CBD4D4;}
	.st350{fill:#C5D0CE;}
	.st351{fill:#0D1D1B;}
	.st352{fill:#0E1D1B;}
	.st353{fill:#F8F7F7;}
	.st354{fill:#DAE3E2;}
	.st355{fill:#DAECE9;}
	.st356{fill:#EAEBEB;}
	.st357{fill:#E5E7E6;}
	.st358{fill:#E3E5E5;}
	.st359{fill:#958A2D;}
	.st360{fill:#D1DBD9;}
	.st361{fill:#D4DDDC;}
	.st362{fill:#E5F0EF;}
	.st363{fill:#D7E8E6;}
	.st364{fill:#ECEDEC;}
	.st365{fill:#E7E9E9;}
	.st366{fill:#FBFBFC;}
	.st367{fill:#FAFAFB;}
	.st368{fill:#F3F5F6;}
	.st369{fill:#1B1B1B;}
	.st370{fill:#D3D9D8;}
	.st371{fill:#D7DCDC;}
	.st372{fill:#D5DFDE;}
	.st373{fill:#F4F4F5;}
	.st374{fill:#F8F8F8;}
	.st375{fill:#E9EAEB;}
	.st376{fill:#D2DCDC;}
	.st377{fill:#D9E0DF;}
	.st378{fill:#E0E4E3;}
	.st379{fill:#4D4948;}
	.st380{fill:#DDEEED;}
	.st381{fill:#104C45;}
	.st382{fill:#DBE3E2;}
	.st383{fill:#DDE6E5;}
	.st384{fill:#F8F8F9;}
	.st385{fill:#D7E1DF;}
	.st386{fill:#F3F3F3;}
	.st387{fill:#F0F0F1;}
	.st388{fill:#ECEEEE;}
	.st389{fill:#F6F6F6;}
	.st390{fill:#F1F3F3;}
	.st391{fill:#2D2D2D;}
	.st392{fill:#16170E;}
	.st393{fill:#11120C;}
	.st394{fill:#0D0D08;}
	.st395{fill:#0E0F08;}
	.st396{fill:#CDD6D6;}
	.st397{fill:#CDD9D8;}
	.st398{fill:#165049;}
	.st399{fill:#CED7D7;}
	.st400{fill:#C1C9C9;}
	.st401{fill:#C2CCCB;}
	.st402{fill:#C2CBCB;}
	.st403{fill:#18514A;}
	.st404{fill:#17514B;}
	.st405{fill:#2B5A54;}
	.st406{fill:#DC9F34;}
	.st407{fill:#D99930;}
	.st408{fill:#E39614;}
	.st409{fill:#ECCC22;}
	.st410{fill:#D8952F;}
	.st411{fill:#EDCE24;}
	.st412{fill:#D38914;}
	.st413{fill:#D99A18;}
	.st414{fill:#D69316;}
	.st415{fill:#DA9C18;}
	.st416{fill:#DDA51A;}
	.st417{fill:#E0AB1C;}
	.st418{fill:#E3B41E;}
	.st419{fill:#E1B01C;}
	.st420{fill:#1B9184;}
	.st421{fill:#2D978A;}
	.st422{fill:#DBE8E7;}
	.st423{fill:#1A9284;}
	.st424{fill:#2A9588;}
	.st425{fill:#DAE6E5;}
	.st426{fill:#1F9789;}
	.st427{fill:#EEF4F4;}
	.st428{fill:#EAF1F1;}
	.st429{fill:#299588;}
	.st430{fill:#DBE7E6;}
	.st431{fill:#179184;}
	.st432{fill:#F0F3F4;}
	.st433{fill:#2F998C;}
	.st434{fill:#389D90;}
	.st435{fill:#DDEAE8;}
	.st436{fill:#1E9588;}
	.st437{fill:#199386;}
	.st438{fill:#E7EFEE;}
	.st439{fill:#F4F8F8;}
	.st440{fill:#F7F8F9;}
	.st441{fill:#F0F5F5;}
	.st442{fill:#2E9A8D;}
	.st443{fill:#DCE9E8;}
	.st444{fill:#179486;}
	.st445{fill:#F5F7F8;}
	.st446{fill:#0D4A42;}
	.st447{fill:#CFE2E1;}
	.st448{fill:#D1E0DF;}
	.st449{fill:#C9D3D3;}
	.st450{fill:#C3CCCC;}
	.st451{fill:#C3CDCC;}
	.st452{fill:#C4CECD;}
	.st453{fill:#C2CCCC;}
	.st454{fill:#C5CDCD;}
	.st455{fill:#C1CAC9;}
	.st456{fill:#C0CACA;}
	.st457{fill:#C1C9C8;}
	.st458{fill:#BFC8C7;}
	.st459{fill:#C6CFCE;}
	.st460{fill:#CCD8D7;}
	.st461{fill:#C9D3D2;}
	.st462{fill:#E8E8E9;}
	.st463{fill:#E6E6E6;}
	.st464{fill:#E5E6E6;}
	.st465{fill:#E8E8E7;}
	.st466{fill:#ECEBEB;}
	.st467{fill:#DCCD30;}
	.st468{fill:#D5E8E6;}
	.st469{fill:#DECE2F;}
	.st470{fill:#E0CF2F;}
	.st471{fill:#C9DAD8;}
	.st472{fill:#D4DDDD;}
	.st473{fill:#C4BD33;}
	.st474{fill:#E2D12E;}
	.st475{fill:#C7D2D2;}
	.st476{fill:#D7DAD9;}
	.st477{fill:#DDDFDE;}
	.st478{fill:#079788;}
	.st479{fill:#D4E5E3;}
	.st480{fill:#E9EAEA;}
	.st481{fill:#2A5A54;}
	.st482{fill:#D3DCDB;}
	.st483{fill:#E2E5E4;}
	.st484{fill:#C6D1D0;}
	.st485{fill:#D7DADA;}
	.st486{fill:#25302F;}
	.st487{fill:#D1E3E1;}
	.st488{fill:#49706B;}
	.st489{fill:#FAFAFA;}
	.st490{fill:#978C2D;}
	.st491{fill:#8B8887;}
	.st492{fill:#295547;}
	.st493{fill:#AFBFBD;}
	.st494{fill:#DBECE9;}
	.st495{fill:#EDEEEE;}
	.st496{fill:#C7D8D6;}
	.st497{fill:#E7EAEA;}
	.st498{fill:#DCEEEB;}
	.st499{fill:#B0A96C;}
	.st500{fill:#507E79;}
	.st501{fill:#114D44;}
	.st502{fill:#0C3F5A;}
	.st503{fill:#292827;}
	.st504{fill:#E2D02F;}
	.st505{fill:#ADA02F;}
	.st506{fill:#595959;}
	.st507{fill:#585858;}
	.st508{fill:#585859;}
	.st509{fill:#009787;}
	.st510{fill:#029687;}
	.st511{fill:#93882C;}
	.st512{fill:#948A2C;}
	.st513{fill:#92872C;}
	.st514{fill:#E9E9EA;}
	.st515{fill:#C8D4D3;}
	.st516{fill:#E5E5E5;}
	.st517{fill:#C0D3D1;}
	.st518{fill:#CCDCDB;}
	.st519{fill:#E4E5E5;}
	.st520{fill:#CBD5D5;}
	.st521{fill:#1A2927;}
	.st522{fill:#DECE2A;}
	.st523{fill:#E2E3E3;}
	.st524{fill:#D5E7E5;}
	.st525{fill:#D6DFDE;}
	.st526{fill:#104E47;}
	.st527{fill:#0F4D46;}
	.st528{fill:#144F48;}
	.st529{fill:#3A655F;}
	.st530{fill:#D0E2E0;}
	.st531{fill:#285953;}
	.st532{fill:#185043;}
	.st533{fill:#225443;}
	.st534{fill:#E8E9E9;}
	.st535{fill:#1F3432;}
	.st536{fill:#F2F2F2;}
	.st537{fill:#CDD7D7;}
	.st538{fill:#AC9E25;}
	.st539{fill:#8B8786;}
	.st540{fill:#B0A96A;}
	.st541{fill:#C49D6C;}
	.st542{fill:#C4C3C1;}
	.st543{fill:#9C9997;}
	.st544{fill:#D8E1E0;}
	.st545{fill:#343434;}
	.st546{fill:#535252;}
	.st547{fill:#AD9F25;}
	.st548{fill:#D9EBE9;}
	.st549{fill:#4D4947;}
	.st550{fill:#D2C230;}
	.st551{fill:#D8E1E1;}
	.st552{fill:#756C1F;}
	.st553{fill:#AA9D26;}
	.st554{fill:#D9EBE8;}
	.st555{fill:#AC9E28;}
	.st556{fill:#ADA029;}
	.st557{fill:#F8F7EF;}
	.st558{fill:#C9B930;}
	.st559{fill:#4D4D3B;}
	.st560{fill:#B6A82D;}
	.st561{fill:#F6F4E8;}
	.st562{fill:#34332A;}
	.st563{fill:#605B4F;}
	.st564{fill:#F5F3DF;}
	.st565{fill:#BCAD32;}
	.st566{fill:#3D3C2C;}
	.st567{fill:#F5F4E6;}
	.st568{fill:#454331;}
	.st569{fill:#817A26;}
	.st570{fill:#B9AB2F;}
	.st571{fill:#807827;}
	.st572{fill:#BCAF35;}
	.st573{fill:#B1A329;}
	.st574{fill:#C7B834;}
	.st575{fill:#BDAF30;}
	.st576{fill:#303030;}
	.st577{fill:#E0E3E2;}
	.st578{fill:#164F49;}
	.st579{fill:#CCDDDC;}
	.st580{fill:#4C746F;}
	.st581{fill:#D6DFDF;}
	.st582{fill:#F1F2F2;}
	.st583{fill:#EBEDED;}
	.st584{fill:#C6D6D4;}
	.st585{fill:#18524B;}
	.st586{fill:#AE8A67;}
	.st587{fill:#272726;}
	.st588{fill:#3C3B2D;}
	.st589{fill:#2C2C27;}
	.st590{fill:#2B2B29;}
	.st591{fill:#D0C139;}
	.st592{fill:#CECDCD;}
	.st593{fill:#383736;}
	.st594{fill:#464544;}
	.st595{fill:#2F2F2F;}
	.st596{fill:#302F2F;}
	.st597{fill:#403F3E;}
	.st598{fill:#2E2D2D;}
	.st599{fill:#585656;}
	.st600{fill:#373737;}
	.st601{fill:#2E2E2E;}
	.st602{fill:#A9A6A5;}
	.st603{fill:#7F7E7F;}
	.st604{fill:#898989;}
	.st605{fill:#4E4E4E;}
	.st606{fill:#7F7460;}
	.st607{fill:#9D8E73;}
	.st608{fill:#5F594D;}
	.st609{fill:#5C5A5A;}
	.st610{fill:#2B2A2A;}
	.st611{fill:#CFBF35;}
	.st612{fill:#4F4C4A;}
	.st613{fill:#504C4A;}
	.st614{fill:#0D4C44;}
	.st615{fill:#E9EAE9;}
	.st616{fill:#EFF0F0;}
	.st617{fill:#E9EBEB;}
	.st618{fill:#DBDFDF;}
	.st619{fill:#E7E7E8;}
	.st620{fill:#E1E5E5;}
	.st621{fill:#F4F3F3;}
	.st622{fill:#EEEDEE;}
	.st623{fill:#4D4B49;}
	.st624{fill:#636262;}
	.st625{fill:#E0E4E4;}
	.st626{fill:#E2E7E6;}
	.st627{fill:#F2F3F2;}
	.st628{fill:#2B2B2B;}
	.st629{fill:#736E6F;}
	.st630{fill:url(#SVGID_1_);}
	.st631{opacity:0.15;}
	.st632{fill:#074943;stroke:#009486;stroke-width:3.4232;}
	.st633{fill-rule:evenodd;clip-rule:evenodd;fill:#074943;stroke:#009486;stroke-width:1.7116;}
	.st634{fill:#074943;stroke:#009486;stroke-miterlimit:10;}
	.st635{fill-rule:evenodd;clip-rule:evenodd;fill:#074943;stroke:#009486;stroke-miterlimit:10;}
	.st636{fill:#FAEF5B;stroke:#E8E644;stroke-miterlimit:10;}
	.st637{fill:#E0CE2B;}
	.st638{fill:url(#SVGID_2_);stroke:url(#SVGID_3_);stroke-miterlimit:10;}
	.st639{fill:url(#SVGID_4_);stroke:url(#SVGID_5_);stroke-miterlimit:10;}
	.st640{opacity:0.63;}
	.st641{fill:#BF9432;}
	.st642{fill:url(#SVGID_6_);}
	.st643{fill:#0E0808;}
	.st644{fill:#0B0706;}
	.st645{fill:#9F762B;}
	.st646{fill:#946126;}
	.st647{fill:#D0E522;}
	.st648{fill:#C7C7C7;}
	.st649{fill:url(#SVGID_7_);}
</style>
<g id="Capa_5">
	<g id="Fondo">
	</g>
	<g id="Texto">
	</g>
	<g id="Identidad">
		<g id="Contacto">
		</g>
	</g>
</g>
<g id="Infografia_x5F_1">
</g>
<g id="Infrografia_x5F_2">
</g>
<g id="LOGO">
	<g transform="translate(-15.231 -13.308)">
		<g transform="translate(46.839 43.661)">
			<path class="st637" d="M29-20.4h-45.7c-2.7,0-4.9,2.2-4.9,4.8v45.3c0,2.7,2.2,4.8,4.9,4.8H29c2.7,0,4.9-2.2,4.9-4.8v-45.3
				C33.9-18.2,31.7-20.4,29-20.4z M29.4,26.8c0,1.8-1.5,3.3-3.3,3.3h-39.9c-1.8,0-3.3-1.5-3.3-3.3v-39.5c0-1.8,1.5-3.3,3.3-3.3h39.9
				c1.8,0,3.3,1.5,3.3,3.3V26.8z"/>
			<g transform="matrix(2.3928 0 0 2.3928 1754.8 -1533.1)">
				<path class="st637" d="M-736.5,630.9h0.5c0.1,0,0.1,0.1,0.1,0.1v2.6c0,0.1-0.1,0.1-0.1,0.1h-0.5c-0.1,0-0.1-0.1-0.1-0.1V631
					C-736.6,630.9-736.6,630.9-736.5,630.9z"/>
				<path class="st637" d="M-734.3,630.9h0.5c0.1,0,0.1,0.1,0.1,0.1v2.6c0,0.1-0.1,0.1-0.1,0.1h-0.5c-0.1,0-0.1-0.1-0.1-0.1V631
					C-734.5,630.9-734.4,630.9-734.3,630.9z"/>
				<path class="st637" d="M-732.1,630.9h0.5c0.1,0,0.1,0.1,0.1,0.1v2.6c0,0.1-0.1,0.1-0.1,0.1h-0.5c-0.1,0-0.1-0.1-0.1-0.1V631
					C-732.3,630.9-732.2,630.9-732.1,630.9z"/>
				<path class="st637" d="M-730,630.9h0.5c0.1,0,0.1,0.1,0.1,0.1v2.6c0,0.1-0.1,0.1-0.1,0.1h-0.5c-0.1,0-0.1-0.1-0.1-0.1V631
					C-730.1,630.9-730,630.9-730,630.9z"/>
				<path class="st637" d="M-727.8,630.9h0.5c0.1,0,0.1,0.1,0.1,0.1v2.6c0,0.1-0.1,0.1-0.1,0.1h-0.5c-0.1,0-0.1-0.1-0.1-0.1V631
					C-727.9,630.9-727.8,630.9-727.8,630.9z"/>
				<path class="st637" d="M-725.6,630.9h0.5c0.1,0,0.1,0.1,0.1,0.1v2.6c0,0.1-0.1,0.1-0.1,0.1h-0.5c-0.1,0-0.1-0.1-0.1-0.1V631
					C-725.7,630.9-725.7,630.9-725.6,630.9z"/>
			</g>
			<g transform="matrix(0 -2.3928 2.3928 0 -1531.4 -1088.2)">
				<path class="st637" d="M-463.4,629.6h0.5c0.1,0,0.1,0.1,0.1,0.1v2.6c0,0.1-0.1,0.1-0.1,0.1h-0.5c-0.1,0-0.1-0.1-0.1-0.1v-2.6
					C-463.5,629.7-463.4,629.6-463.4,629.6z"/>
				<path class="st637" d="M-461.2,629.6h0.5c0.1,0,0.1,0.1,0.1,0.1v2.6c0,0.1-0.1,0.1-0.1,0.1h-0.5c-0.1,0-0.1-0.1-0.1-0.1v-2.6
					C-461.3,629.7-461.3,629.6-461.2,629.6z"/>
				<path class="st637" d="M-459.1,629.6h0.5c0.1,0,0.1,0.1,0.1,0.1v2.6c0,0.1-0.1,0.1-0.1,0.1h-0.5c-0.1,0-0.1-0.1-0.1-0.1v-2.6
					C-459.2,629.7-459.1,629.6-459.1,629.6z"/>
				<path class="st637" d="M-456.9,629.6h0.5c0.1,0,0.1,0.1,0.1,0.1v2.6c0,0.1-0.1,0.1-0.1,0.1h-0.5c-0.1,0-0.1-0.1-0.1-0.1v-2.6
					C-457,629.7-457,629.6-456.9,629.6z"/>
				<path class="st637" d="M-454.7,629.6h0.5c0.1,0,0.1,0.1,0.1,0.1v2.6c0,0.1-0.1,0.1-0.1,0.1h-0.5c-0.1,0-0.1-0.1-0.1-0.1v-2.6
					C-454.9,629.7-454.8,629.6-454.7,629.6z"/>
				<path class="st637" d="M-452.6,629.6h0.5c0.1,0,0.1,0.1,0.1,0.1v2.6c0,0.1-0.1,0.1-0.1,0.1h-0.5c-0.1,0-0.1-0.1-0.1-0.1v-2.6
					C-452.7,629.7-452.7,629.6-452.6,629.6z"/>
			</g>
			<g transform="matrix(0 -2.3928 2.3928 0 -1014.5 -1088.2)">
				<path class="st637" d="M-463.4,436.8h0.5c0.1,0,0.1,0.1,0.1,0.1v2.6c0,0.1-0.1,0.1-0.1,0.1h-0.5c-0.1,0-0.1-0.1-0.1-0.1v-2.6
					C-463.5,436.9-463.4,436.8-463.4,436.8z"/>
				<path class="st637" d="M-461.2,436.8h0.5c0.1,0,0.1,0.1,0.1,0.1v2.6c0,0.1-0.1,0.1-0.1,0.1h-0.5c-0.1,0-0.1-0.1-0.1-0.1v-2.6
					C-461.3,436.9-461.3,436.8-461.2,436.8z"/>
				<path class="st637" d="M-459.1,436.8h0.5c0.1,0,0.1,0.1,0.1,0.1v2.6c0,0.1-0.1,0.1-0.1,0.1h-0.5c-0.1,0-0.1-0.1-0.1-0.1v-2.6
					C-459.2,436.9-459.1,436.8-459.1,436.8z"/>
				<path class="st637" d="M-456.9,436.8h0.5c0.1,0,0.1,0.1,0.1,0.1v2.6c0,0.1-0.1,0.1-0.1,0.1h-0.5c-0.1,0-0.1-0.1-0.1-0.1v-2.6
					C-457,436.9-457,436.8-456.9,436.8z"/>
				<path class="st637" d="M-454.7,436.8h0.5c0.1,0,0.1,0.1,0.1,0.1v2.6c0,0.1-0.1,0.1-0.1,0.1h-0.5c-0.1,0-0.1-0.1-0.1-0.1v-2.6
					C-454.9,436.9-454.8,436.8-454.7,436.8z"/>
				<path class="st637" d="M-452.6,436.8h0.5c0.1,0,0.1,0.1,0.1,0.1v2.6c0,0.1-0.1,0.1-0.1,0.1h-0.5c-0.1,0-0.1-0.1-0.1-0.1v-2.6
					C-452.7,436.9-452.7,436.8-452.6,436.8z"/>
			</g>
			<g transform="matrix(2.3928 0 0 2.3928 1754.8 -1010.3)">
				<path class="st637" d="M-736.5,435.2h0.5c0.1,0,0.1,0.1,0.1,0.1v2.6c0,0.1-0.1,0.1-0.1,0.1h-0.5c-0.1,0-0.1-0.1-0.1-0.1v-2.6
					C-736.6,435.2-736.6,435.2-736.5,435.2z"/>
				<path class="st637" d="M-734.3,435.2h0.5c0.1,0,0.1,0.1,0.1,0.1v2.6c0,0.1-0.1,0.1-0.1,0.1h-0.5c-0.1,0-0.1-0.1-0.1-0.1v-2.6
					C-734.5,435.2-734.4,435.2-734.3,435.2z"/>
				<path class="st637" d="M-732.1,435.2h0.5c0.1,0,0.1,0.1,0.1,0.1v2.6c0,0.1-0.1,0.1-0.1,0.1h-0.5c-0.1,0-0.1-0.1-0.1-0.1v-2.6
					C-732.3,435.2-732.2,435.2-732.1,435.2z"/>
				<path class="st637" d="M-730,435.2h0.5c0.1,0,0.1,0.1,0.1,0.1v2.6c0,0.1-0.1,0.1-0.1,0.1h-0.5c-0.1,0-0.1-0.1-0.1-0.1v-2.6
					C-730.1,435.2-730,435.2-730,435.2z"/>
				<path class="st637" d="M-727.8,435.2h0.5c0.1,0,0.1,0.1,0.1,0.1v2.6c0,0.1-0.1,0.1-0.1,0.1h-0.5c-0.1,0-0.1-0.1-0.1-0.1v-2.6
					C-727.9,435.2-727.8,435.2-727.8,435.2z"/>
				<path class="st637" d="M-725.6,435.2h0.5c0.1,0,0.1,0.1,0.1,0.1v2.6c0,0.1-0.1,0.1-0.1,0.1h-0.5c-0.1,0-0.1-0.1-0.1-0.1v-2.6
					C-725.7,435.2-725.7,435.2-725.6,435.2z"/>
			</g>
		</g>
	</g>
</g>
</svg>
